HIERARCHY
ROOT Hips
{
	OFFSET 0.000000 0.000000 0.000000
	CHANNELS 6 Xposition Yposition Zposition Zrotation Yrotation Xrotation 
	JOINT LHipJoint
	{
		OFFSET 0.000000 0.000000 0.000000
		CHANNELS 3 Zrotation Yrotation Xrotation
		JOINT LeftUpLeg
		{
			OFFSET 1.363060 -1.794630 0.839290
			CHANNELS 3 Zrotation Yrotation Xrotation
			JOINT LeftLeg
			{
				OFFSET 2.448110 -6.726130 0.000000
				CHANNELS 3 Zrotation Yrotation Xrotation
				JOINT LeftFoot
				{
					OFFSET 2.562200 -7.039590 0.000000
					CHANNELS 3 Zrotation Yrotation Xrotation
					JOINT LeftToeBase
					{
						OFFSET 0.157640 -0.433110 2.322550
						CHANNELS 3 Zrotation Yrotation Xrotation
						End Site
						{
							OFFSET 0.000000 0.000000 0.000000
						}
					}
				}
			}
		}
	}
	JOINT RHipJoint
	{
		OFFSET 0.000000 0.000000 0.000000
		CHANNELS 3 Zrotation Yrotation Xrotation
		JOINT RightUpLeg
		{
			OFFSET -1.305520 -1.794630 0.839290
			CHANNELS 3 Zrotation Yrotation Xrotation
			JOINT RightLeg
			{
				OFFSET -2.542530 -6.985550 0.000000
				CHANNELS 3 Zrotation Yrotation Xrotation
				JOINT RightFoot
				{
					OFFSET -2.568260 -7.056230 0.000000
					CHANNELS 3 Zrotation Yrotation Xrotation
					JOINT RightToeBase
					{
						OFFSET -0.164730 -0.452590 2.363150
						CHANNELS 3 Zrotation Yrotation Xrotation
						End Site
						{
							OFFSET 0.000000 0.000000 0.000000
						}
					}
				}
			}
		}
	}
	JOINT LowerBack
	{
		OFFSET 0.000000 0.000000 0.000000
		CHANNELS 3 Zrotation Yrotation Xrotation
		JOINT Spine
		{
			OFFSET 0.028270 2.035590 -0.193380
			CHANNELS 3 Zrotation Yrotation Xrotation
			JOINT Spine1
			{
				OFFSET 0.056720 2.048850 -0.042750
				CHANNELS 3 Zrotation Yrotation Xrotation
				JOINT Neck
				{
					OFFSET 0.000000 0.000000 0.000000
					CHANNELS 3 Zrotation Yrotation Xrotation
					JOINT Neck1
					{
						OFFSET -0.054170 1.746240 0.172020
						CHANNELS 3 Zrotation Yrotation Xrotation
						JOINT Head
						{
							OFFSET 0.104070 1.761360 -0.123970
							CHANNELS 3 Zrotation Yrotation Xrotation
							End Site
							{
								OFFSET 0.000000 0.000000 0.000000
							}
						}
					}
				}
				JOINT LeftShoulder
				{
					OFFSET 0.000000 0.000000 0.000000
					CHANNELS 3 Zrotation Yrotation Xrotation
					JOINT LeftArm
					{
						OFFSET 3.362410 1.200890 -0.311210
						CHANNELS 3 Zrotation Yrotation Xrotation
						JOINT LeftForeArm
						{
							OFFSET 4.983000 -0.000000 -0.000000
							CHANNELS 3 Zrotation Yrotation Xrotation
							JOINT LeftHand
							{
								OFFSET 3.483560 -0.000000 -0.000000
								CHANNELS 3 Zrotation Yrotation Xrotation
								JOINT LeftFingerBase
								{
									OFFSET 0.000000 0.000000 0.000000
									CHANNELS 3 Zrotation Yrotation Xrotation
									JOINT LeftHandIndex1
									{
										OFFSET 0.715260 -0.000000 -0.000000
										CHANNELS 3 Zrotation Yrotation Xrotation
										End Site
										{
											OFFSET 0.000000 0.000000 0.000000
										}
									}
								}
								JOINT LThumb
								{
									OFFSET 0.000000 0.000000 0.000000
									CHANNELS 3 Zrotation Yrotation Xrotation
									End Site
									{
										OFFSET 0.000000 0.000000 0.000000
									}
								}
							}
						}
					}
				}
				JOINT RightShoulder
				{
					OFFSET 0.000000 0.000000 0.000000
					CHANNELS 3 Zrotation Yrotation Xrotation
					JOINT RightArm
					{
						OFFSET -3.136600 1.374050 -0.404650
						CHANNELS 3 Zrotation Yrotation Xrotation
						JOINT RightForeArm
						{
							OFFSET -5.241900 -0.000000 -0.000000
							CHANNELS 3 Zrotation Yrotation Xrotation
							JOINT RightHand
							{
								OFFSET -3.444170 -0.000000 -0.000000
								CHANNELS 3 Zrotation Yrotation Xrotation
								JOINT RightFingerBase
								{
									OFFSET 0.000000 0.000000 0.000000
									CHANNELS 3 Zrotation Yrotation Xrotation
									JOINT RightHandIndex1
									{
										OFFSET -0.622530 -0.000000 -0.000000
										CHANNELS 3 Zrotation Yrotation Xrotation
										End Site
										{
											OFFSET 0.000000 0.000000 0.000000
										}
									}
								}
								JOINT RThumb
								{
									OFFSET 0.000000 0.000000 0.000000
									CHANNELS 3 Zrotation Yrotation Xrotation
									End Site
									{
										OFFSET 0.000000 0.000000 0.000000
									}
								}
							}
						}
					}
				}
			}
		}
	}
}
MOTION
Frames: 6
Frame Time: 0.008333
4.855353 17.292239 0.884646 -176.736609 -66.451366 -174.232637 -12.269560 2.631425 0.239152 -7.021391 29.552507 -13.122474 -2.664108 -1.737963 1.057341 1.778697 13.454285 -4.159217 0.785300 -0.000000 -25.347201 8.007312 -3.602705 7.130311 5.274551 7.669519 -11.746082 3.615054 1.740868 -3.881759 1.566512 10.515361 3.116201 1.430700 0.000000 -31.968800 4.226887 2.391332 -10.158308 0.032352 1.776981 -5.857630 -4.983662 1.760399 -5.708391 5.819088 3.837239 7.271548 -1.876534 -0.352897 4.133673 0.000000 0.000000 0.000000 9.264038 11.670395 -6.990873 -29.476768 -72.790163 -41.679765 174.372023 -54.797929 179.498363 30.097513 -21.749356 -6.427594 -0.459580 1.458940 0.000000 0.000000 0.000000 0.000000 0.000000 0.000000 0.000000 0.058898 0.878844 -9.069912 74.412235 67.201313 -3.088499 -173.713584 52.988016 179.611220 -19.830159 24.045245 -4.546327 0.067529 -1.345738 -0.000000 0.000000 0.000000 0.000000 0.000000 0.000000 0.000000 
4.846957 17.292247 0.885832 -176.760906 -65.630647 -173.994142 -12.288934 2.622502 0.176730 -7.190399 29.935728 -13.407671 -2.685792 -1.739381 1.175276 1.825278 13.740366 -4.270263 0.777200 0.000000 -25.227700 7.962606 -3.597737 7.246506 5.203146 8.107632 -12.206854 3.641378 1.726273 -3.668787 1.616228 10.907658 3.193990 1.513400 0.000000 -32.064200 4.343067 2.394433 -10.210413 0.065279 1.767878 -5.897120 -4.953841 1.747051 -5.829262 5.874483 3.883723 7.271718 -1.865535 -0.352824 4.137155 0.000000 0.000000 0.000000 9.544776 11.569786 -7.078707 -27.550431 -72.547121 -43.777073 174.399715 -55.230984 179.498870 30.272671 -21.849612 -6.493308 -0.460373 1.453452 0.000000 0.000000 0.000000 0.000000 0.000000 0.000000 0.000000 0.140789 1.033220 -9.028962 74.848431 67.265136 -2.727569 -173.727398 53.156674 179.610623 -19.828617 24.036411 -4.543831 0.065476 -1.344900 -0.000000 0.000000 0.000000 0.000000 0.000000 0.000000 0.000000 
4.839729 17.292184 0.886907 -176.789336 -64.824982 -173.736834 -12.305348 2.618895 0.111175 -7.383303 30.346721 -13.726000 -2.716809 -1.738332 1.278469 1.862746 13.967351 -4.359516 0.769600 -0.000000 -25.145700 7.920415 -3.586515 7.361913 5.122755 8.541577 -12.677322 3.666679 1.715741 -3.473589 1.664045 11.277309 3.277863 1.593300 0.000001 -32.160801 4.444085 2.367575 -10.260743 0.097495 1.728676 -5.940810 -4.925232 1.703436 -5.967267 5.942652 3.927767 7.278201 -1.854541 -0.352891 4.142977 0.000000 0.000000 0.000000 9.851833 11.366882 -7.166679 -25.340052 -72.156041 -46.119858 174.443600 -55.773378 179.499438 30.493188 -21.894990 -6.552942 -0.462082 1.445163 -0.000000 0.000000 0.000000 0.000000 0.000000 0.000000 0.000000 0.241544 1.201945 -8.975669 75.330883 67.339152 -2.324939 -173.748935 53.345507 179.610108 -19.821824 24.025732 -4.539624 0.063307 -1.343992 -0.000000 0.000000 0.000000 0.000000 0.000000 0.000000 0.000000 
4.833747 17.292022 0.887801 -176.819826 -64.042944 -173.463359 -12.318530 2.621470 0.043885 -7.600038 30.783829 -14.078025 -2.757750 -1.734731 1.363555 1.889761 14.127340 -4.424696 0.763200 0.000000 -25.103700 7.881071 -3.568769 7.475350 5.035770 8.963895 -13.159043 3.691220 1.709212 -3.291099 1.709775 11.622143 3.364291 1.669500 0.000000 -32.254700 4.528503 2.307614 -10.310507 0.128325 1.655977 -5.988612 -4.901041 1.626079 -6.120122 6.026800 3.968136 7.289536 -1.842931 -0.353052 4.150762 0.000000 0.000000 0.000000 10.182536 11.052057 -7.249181 -22.835545 -71.593236 -48.707929 174.509272 -56.421913 179.500096 30.764551 -21.920387 -6.617793 -0.464847 1.434922 -0.000000 0.000000 0.000000 0.000000 0.000000 0.000000 0.000000 0.360970 1.384777 -8.909581 75.853580 67.418451 -1.886613 -173.777485 53.548489 179.609622 -19.818870 24.013534 -4.536108 0.061313 -1.343019 0.000000 0.000000 0.000000 0.000000 0.000000 0.000000 0.000000 
4.828927 17.291824 0.888235 -176.851917 -63.290962 -173.166120 -12.327244 2.631162 -0.019955 -7.849129 31.237036 -14.478572 -2.809113 -1.729160 1.430330 1.906581 14.220258 -4.466687 0.758301 0.000000 -25.104100 7.844331 -3.545200 7.591042 4.941052 9.378320 -13.667630 3.714973 1.706940 -3.113718 1.752802 11.933044 3.447716 1.739500 -0.000000 -32.336700 4.592164 2.212476 -10.371743 0.156496 1.547450 -6.041781 -4.884735 1.512253 -6.282852 6.133081 4.004015 7.302868 -1.829894 -0.353226 4.159755 0.000000 0.000000 0.000000 10.549540 10.620400 -7.317539 -20.094353 -70.833972 -51.496202 174.601273 -57.165467 179.500826 31.091634 -21.988371 -6.707852 -0.468558 1.424285 -0.000000 0.000000 0.000000 0.000000 0.000000 0.000000 0.000000 0.500898 1.580522 -8.831571 76.409032 67.495904 -1.422250 -173.812424 53.760248 179.609120 -19.825444 24.003952 -4.535279 0.059674 -1.342066 0.000000 0.000000 0.000000 0.000000 0.000000 0.000000 0.000000 
4.825347 17.291605 0.888253 -176.880896 -62.575510 -172.853981 -12.331803 2.648118 -0.080349 -8.124791 31.702230 -14.918076 -2.870056 -1.721365 1.474127 1.912808 14.244644 -4.482829 0.755800 -0.000000 -25.147600 7.810555 -3.515340 7.705360 4.843328 9.775588 -14.196688 3.738320 1.708313 -2.937656 1.793242 12.211364 3.527938 1.803200 0.000000 -32.408500 4.634642 2.080153 -10.440504 0.181752 1.400978 -6.098462 -4.878749 1.359812 -6.450724 6.266188 4.035668 7.313880 -1.814505 -0.353297 4.168688 0.000000 0.000000 0.000000 10.950321 10.077780 -7.363649 -17.175993 -69.879358 -54.442387 174.724462 -58.010541 179.501749 31.467928 -22.146232 -6.836320 -0.472724 1.414268 -0.000000 0.000000 0.000000 0.000000 0.000000 0.000000 0.000000 0.663228 1.788166 -8.743459 76.984158 67.569260 -0.942628 -173.851628 53.974695 179.608517 -19.851560 23.995675 -4.539339 0.058660 -1.341072 0.000000 0.000000 0.000000 0.000000 0.000000 0.000000 0.000000 
